<svg viewBox="0 0 70.74 27.23" xmlns="http://www.w3.org/2000/svg"><g fill="#231815"><path d="m.69 9.21c0-2 1.61-3.52 4.57-3.52a6.79 6.79 0 0 1 3.5.84c.59.33.92.71.92 1.22s-.52 1.59-1.37 1.59a2.92 2.92 0 0 1 -1.07-.34 5.68 5.68 0 0 0 -2.17-.56c-.69 0-1.12.25-1.12.71 0 1.58 5.92.92 5.92 4.92 0 2.17-1.68 3.55-4.67 3.55a6.67 6.67 0 0 1 -3.67-.94 1.54 1.54 0 0 1 -.94-1.3c0-.59.46-1.58 1.38-1.58a2.24 2.24 0 0 1 1 .36 4.89 4.89 0 0 0 2.35.74c.76 0 1.28-.26 1.28-.77 0-1.68-5.91-.99-5.91-4.92z"/><path d="m15.92 8.5a5.1 5.1 0 0 0 -2.12.5 2.76 2.76 0 0 1 -1.07.36c-.79 0-1.3-.94-1.3-1.61 0-.49.28-.84.92-1.2a8.13 8.13 0 0 1 3.88-.87 5 5 0 0 1 4 1.35 4.38 4.38 0 0 1 .77 2.87v6.25c0 1-.46 1.4-1.66 1.4-1 0-1.43-.31-1.43-1v-.25a4 4 0 0 1 -3.16 1.25c-2.35 0-3.78-1.28-3.78-3.32 0-2.3 1.84-3.6 6.74-4v-.23c-.03-.94-.47-1.5-1.79-1.5zm-1.5 5.43c0 .59.38 1 1.35 1a3 3 0 0 0 1.91-.71v-2.03c-2.2.29-3.27.74-3.27 1.74z"/><path d="m33.8 16.68c0 .56-.54.87-1.73.87a2.37 2.37 0 0 1 -2.35-1l-3.45-4.55v4.18c0 .92-.56 1.38-1.71 1.38s-1.71-.46-1.71-1.38v-14.7c0-.92.56-1.38 1.71-1.38s1.71.46 1.71 1.38v9.36l3.37-4a2.41 2.41 0 0 1 2.27-1.15c1.2 0 1.79.36 1.79.89a1.88 1.88 0 0 1 -.7 1.2l-3.39 3.55 3.44 4a2.24 2.24 0 0 1 .75 1.35z"/><path d="m44.08 15.51c0 .61-.41.92-.89 1.22a6.82 6.82 0 0 1 -3.65.89c-3.8 0-5.94-2.19-5.94-5.92s2.12-6.07 5.54-6.07a4.91 4.91 0 0 1 5.26 5c0 1.79-.87 2-1.94 2h-5.57a2.48 2.48 0 0 0 2.73 2.19 4.54 4.54 0 0 0 2.09-.54 2.27 2.27 0 0 1 1-.33 1.52 1.52 0 0 1 1.37 1.56zm-7.22-5.08h4.29a2 2 0 0 0 -2.07-2.19c-1.28 0-2.02.76-2.22 2.19z"/><path d="m48 16.66c0 .59-.33.89-1 .89s-1.1-.31-1.1-.89v-15.77c0-.59.33-.89 1-.89s1.1.31 1.1.89z"/><path d="m54.39 7.76a4.44 4.44 0 0 0 -2.3.64c-.41.23-.61.41-.89.41a1 1 0 0 1 -.87-1c0-.31.23-.61.76-.94a6.72 6.72 0 0 1 3.5-.89 4.13 4.13 0 0 1 3.52 1.38 4.44 4.44 0 0 1 .69 2.78v6.53c0 .61-.25.92-1 .92s-.94-.2-.94-.69v-.61a4.49 4.49 0 0 1 -3.42 1.35c-2.3 0-3.62-1.28-3.62-3.19 0-2.32 2-3.55 6.91-3.93v-.33c-.02-1.62-.66-2.43-2.34-2.43zm-2.32 6.5c0 .89.61 1.58 2 1.58a4 4 0 0 0 2.6-1v-2.93c-3.15.36-4.6.95-4.6 2.35z"/><path d="m64.77 17.63a7.55 7.55 0 0 1 -3.6-.84 1.68 1.68 0 0 1 -.86-1.79v-14.11c0-.59.33-.89 1-.89s1.1.31 1.1.89v6a4.42 4.42 0 0 1 2.95-.89c3.14 0 5.25 2.14 5.25 5.71s-2.22 5.92-5.84 5.92zm0-1.76c2.25 0 3.62-1.56 3.62-4.06s-1.3-4.08-3.5-4.08a3.76 3.76 0 0 0 -2.45.84v6.66a4.27 4.27 0 0 0 2.33.64z"/><path d="m.69 9.21c0-2 1.61-3.52 4.57-3.52a6.79 6.79 0 0 1 3.5.84c.59.33.92.71.92 1.22s-.52 1.59-1.37 1.59a2.92 2.92 0 0 1 -1.07-.34 5.68 5.68 0 0 0 -2.17-.56c-.69 0-1.12.25-1.12.71 0 1.58 5.92.92 5.92 4.92 0 2.17-1.68 3.55-4.67 3.55a6.67 6.67 0 0 1 -3.67-.94 1.54 1.54 0 0 1 -.94-1.3c0-.59.46-1.58 1.38-1.58a2.24 2.24 0 0 1 1 .36 4.89 4.89 0 0 0 2.35.74c.76 0 1.28-.26 1.28-.77 0-1.68-5.91-.99-5.91-4.92z"/><path d="m15.92 8.5a5.1 5.1 0 0 0 -2.12.5 2.76 2.76 0 0 1 -1.07.36c-.79 0-1.3-.94-1.3-1.61 0-.49.28-.84.92-1.2a8.13 8.13 0 0 1 3.88-.87 5 5 0 0 1 4 1.35 4.38 4.38 0 0 1 .77 2.87v6.25c0 1-.46 1.4-1.66 1.4-1 0-1.43-.31-1.43-1v-.25a4 4 0 0 1 -3.16 1.25c-2.35 0-3.78-1.28-3.78-3.32 0-2.3 1.84-3.6 6.74-4v-.23c-.03-.94-.47-1.5-1.79-1.5zm-1.5 5.43c0 .59.38 1 1.35 1a3 3 0 0 0 1.91-.71v-2.03c-2.2.29-3.27.74-3.27 1.74z"/><path d="m33.8 16.68c0 .56-.54.87-1.73.87a2.37 2.37 0 0 1 -2.35-1l-3.45-4.55v4.18c0 .92-.56 1.38-1.71 1.38s-1.71-.46-1.71-1.38v-14.7c0-.92.56-1.38 1.71-1.38s1.71.46 1.71 1.38v9.36l3.37-4a2.41 2.41 0 0 1 2.27-1.15c1.2 0 1.79.36 1.79.89a1.88 1.88 0 0 1 -.7 1.2l-3.39 3.55 3.44 4a2.24 2.24 0 0 1 .75 1.35z"/><path d="m44.08 15.51c0 .61-.41.92-.89 1.22a6.82 6.82 0 0 1 -3.65.89c-3.8 0-5.94-2.19-5.94-5.92s2.12-6.07 5.54-6.07a4.91 4.91 0 0 1 5.26 5c0 1.79-.87 2-1.94 2h-5.57a2.48 2.48 0 0 0 2.73 2.19 4.54 4.54 0 0 0 2.09-.54 2.27 2.27 0 0 1 1-.33 1.52 1.52 0 0 1 1.37 1.56zm-7.22-5.08h4.29a2 2 0 0 0 -2.07-2.19c-1.28 0-2.02.76-2.22 2.19z"/><path d="m48 16.66c0 .59-.33.89-1 .89s-1.1-.31-1.1-.89v-15.77c0-.59.33-.89 1-.89s1.1.31 1.1.89z"/><path d="m54.39 7.76a4.44 4.44 0 0 0 -2.3.64c-.41.23-.61.41-.89.41a1 1 0 0 1 -.87-1c0-.31.23-.61.76-.94a6.72 6.72 0 0 1 3.5-.89 4.13 4.13 0 0 1 3.52 1.38 4.44 4.44 0 0 1 .69 2.78v6.53c0 .61-.25.92-1 .92s-.94-.2-.94-.69v-.61a4.49 4.49 0 0 1 -3.42 1.35c-2.3 0-3.62-1.28-3.62-3.19 0-2.32 2-3.55 6.91-3.93v-.33c-.02-1.62-.66-2.43-2.34-2.43zm-2.32 6.5c0 .89.61 1.58 2 1.58a4 4 0 0 0 2.6-1v-2.93c-3.15.36-4.6.95-4.6 2.35z"/><path d="m64.77 17.63a7.55 7.55 0 0 1 -3.6-.84 1.68 1.68 0 0 1 -.86-1.79v-14.11c0-.59.33-.89 1-.89s1.1.31 1.1.89v6a4.42 4.42 0 0 1 2.95-.89c3.14 0 5.25 2.14 5.25 5.71s-2.22 5.92-5.84 5.92zm0-1.76c2.25 0 3.62-1.56 3.62-4.06s-1.3-4.08-3.5-4.08a3.76 3.76 0 0 0 -2.45.84v6.66a4.27 4.27 0 0 0 2.33.64z"/><path d="m4.54 25.81h-1.66a2.09 2.09 0 0 0 1.73.83.27.27 0 0 1 .29.27.31.31 0 0 1 -.33.31 2.77 2.77 0 0 1 -2.11-1.22 2.79 2.79 0 0 1 -2.17 1.23.28.28 0 0 1 -.29-.29.25.25 0 0 1 .23-.25c1-.11 1.53-.41 1.77-.91h-1.65a.23.23 0 0 1 -.24-.23.24.24 0 0 1 .24-.24h1.78v-.21a.31.31 0 0 1 .09-.22h-1.89a.22.22 0 0 1 -.24-.23.23.23 0 0 1 .24-.24h1.83v-.31h-1.27a.21.21 0 0 1 -.23-.21.22.22 0 0 1 .23-.23h1.27v-.34h-1.6a.22.22 0 0 1 -.24-.22.23.23 0 0 1 .24-.23h1a2.22 2.22 0 0 0 -.29-.36l-.07-.11a.27.27 0 0 1 .28-.23c.23 0 .64.52.64.71h.65a3.32 3.32 0 0 0 .29-.59.24.24 0 0 1 .24-.17.3.3 0 0 1 .31.27 1.31 1.31 0 0 1 -.28.49h1a.22.22 0 1 1 0 .45h-1.62v.34h1.29a.22.22 0 1 1 0 .44h-1.29v.35h1.85a.22.22 0 0 1 .24.23.23.23 0 0 1 -.24.23h-1.94l.08.18v.24h1.84a.24.24 0 0 1 0 .48z"/><path d="m6.76 24.32c0-.38 0-.75 0-1.07 0-.52.44-.52.75-.52h.25a.49.49 0 0 1 .51.48v1.07s0 .77 0 1.1c0 .48-.42.54-.77.54h-.27a.52.52 0 0 1 -.47-.54c0-.31 0-.68 0-1.06zm1 .15c0-.4 0-.81 0-1.11 0-.14-.1-.17-.25-.17s-.26.06-.26.17 0 .6 0 .95 0 .7 0 1c0 .1 0 .16.26.16s.24 0 .25-.17.03-.54.03-.83zm2.24 2.53a.28.28 0 0 1 -.56 0v-1.66a5.19 5.19 0 0 1 -1.34 1.42l-.19.06a.29.29 0 0 1 -.29-.27.27.27 0 0 1 .15-.23 4.52 4.52 0 0 0 1.57-1.56h-.75a.24.24 0 0 1 -.25-.24.24.24 0 0 1 .26-.24h.9v-.64h-.75a.24.24 0 1 1 0-.48h.73v-.71a.28.28 0 0 1 .55 0v.71h.88a.24.24 0 1 1 0 .48h-.91v.64h1.2a.24.24 0 0 1 .26.24.24.24 0 0 1 -.25.24h-1.09a5.29 5.29 0 0 0 1.4 1.44l.12.21a.32.32 0 0 1 -.32.29l-.2-.07a5.47 5.47 0 0 1 -1.12-1.31z"/><path d="m15.67 26.95c-1.14 0-1.18-.66-1.18-1.22s.07-1.47.07-2.14a5.42 5.42 0 0 0 0-.65v-.06a.28.28 0 0 1 .29-.28.31.31 0 0 1 .32.27v.41c0 .7-.12 1.59-.12 2.35 0 .46 0 .75.58.75a3.92 3.92 0 0 0 1.37-.3h.18a.27.27 0 0 1 .28.27.39.39 0 0 1 -.28.36 4.41 4.41 0 0 1 -1.51.24z"/><path d="m21.65 26.46a1.06 1.06 0 0 1 -.67-.29 3 3 0 0 1 -.83-1.71c0-.21-.11-.56-.11-.61a.28.28 0 0 1 .28-.27.3.3 0 0 1 .28.27c0 .18 0 .37.08.56.23 1.32.77 1.37.8 1.37s.11 0 .16-.18.09-.3.16-.48a.22.22 0 0 1 .21-.16.31.31 0 0 1 .3.28c0 .19-.15.56-.17.73a.47.47 0 0 1 -.49.49zm2.18-1.29a2 2 0 0 0 -.75-1.17l-.1-.18a.25.25 0 0 1 .26-.23l.24.1c.24.2.94.83.94 1.4a.31.31 0 0 1 -.31.32.28.28 0 0 1 -.28-.24z"/><path d="m29.63 27h-1.68c-.49 0-.74-.27-.75-.69s0-1 0-1.61 0-1.11 0-1.49a.65.65 0 0 1 .71-.62h1.74a.69.69 0 0 1 .69.66v1.48s0 1.25 0 1.55a.7.7 0 0 1 -.71.72zm.17-2.61c0-.36 0-.69 0-.91 0-.39-.1-.4-1-.4s-1 0-1.06.4v.91zm-2.08.5v1.2s.07.39 1 .39h.6c.32 0 .41-.16.43-.4s0-.73 0-1.19z"/><path d="m35.59 26v1a.28.28 0 0 1 -.59 0v-1h-.67a.23.23 0 0 1 -.26-.23.25.25 0 0 1 .26-.25h.67v-.14-1.11a7.23 7.23 0 0 1 -1.78 2l-.21.07a.28.28 0 0 1 -.28-.27.29.29 0 0 1 .15-.24 6.09 6.09 0 0 0 1.87-2h-1.57a.23.23 0 0 1 -.18-.23.26.26 0 0 1 .26-.27h1.74v-.95a.24.24 0 0 1 .27-.24.26.26 0 0 1 .28.24v.95h1.81a.25.25 0 0 1 0 .51h-1.57a6.05 6.05 0 0 0 1.88 1.86.28.28 0 0 1 .14.23.33.33 0 0 1 -.33.31l-.2-.07a7.17 7.17 0 0 1 -1.74-1.91v1.14.15h.68a.24.24 0 1 1 0 .48z"/><path d="m40.22 24.55a2.14 2.14 0 0 0 -.66-.35.2.2 0 0 1 -.15-.19.29.29 0 0 1 .28-.28 2 2 0 0 1 .83.32.28.28 0 0 1 .13.24.31.31 0 0 1 -.28.32zm-.4 2.55a.29.29 0 0 1 -.3-.28l.06-.17a6.09 6.09 0 0 0 .76-1.38.24.24 0 0 1 .23-.17.28.28 0 0 1 .28.27 5.33 5.33 0 0 1 -.76 1.57.33.33 0 0 1 -.28.15zm.6-3.8a1.92 1.92 0 0 0 -.6-.48l-.12-.17a.3.3 0 0 1 .31-.27c.13 0 .9.38.9.7a.32.32 0 0 1 -.29.32zm2.75-.3v.52h.41a.61.61 0 0 1 .62.65v1.2s0 .68 0 .95a.66.66 0 0 1 -.64.7h-.94c-.31 0-.61 0-.85 0a.65.65 0 0 1 -.69-.69c0-.28 0-.6 0-.92s0-.9 0-1.28a.61.61 0 0 1 .64-.62h.28v-.51h-.86a.25.25 0 0 1 0-.5h3a.25.25 0 0 1 0 .5zm-.46.95h-.26c0 1.09-.61 1.36-.74 1.36l-.14-.05v.38h2.13v-.4c0-.32 0-.64 0-.9s-.11-.38-.35-.39h-.24v.7l.09.11c.1 0 .13-.05.13-.35a.15.15 0 0 1 .15-.16.17.17 0 0 1 .18.16c0 .26 0 .67-.52.67-.33 0-.42-.14-.42-.49zm-.77 0c-.28 0-.36.1-.36.39s0 .36 0 .59a1.06 1.06 0 0 0 .48-1zm1.76 2.05h-2.13v.13c0 .37.1.37 1 .37h.71c.26 0 .35-.15.36-.38zm-1-2.54c0-.2 0-.39 0-.52h-.24v.52z"/><path d="m50 24.73a1.2 1.2 0 0 0 -1.32-1.17.26.26 0 0 1 .16.24 4.07 4.07 0 0 1 -1.21 2.24.62.62 0 0 1 -.43.19c-.4 0-.77-.45-.77-1.07a2.26 2.26 0 0 1 2.29-2.07 1.71 1.71 0 0 1 1.86 1.65 1.73 1.73 0 0 1 -.12.64 2.63 2.63 0 0 1 -2.12 1.44.3.3 0 0 1 -.32-.28c0-.12.1-.24.31-.28 1.03-.15 1.67-.78 1.67-1.53zm-1.64-1.14a1.86 1.86 0 0 0 -1.36 1.57c0 .43.28.48.3.48h.11a3.15 3.15 0 0 0 .9-1.76.29.29 0 0 1 .06-.29z"/><path d="m52.92 25.12a.28.28 0 0 1 -.23.14.25.25 0 0 1 -.24-.24l.06-.17a4.44 4.44 0 0 0 .78-1.85h-.37a.24.24 0 1 1 0-.48h1.49a.24.24 0 1 1 0 .48h-.64a7.07 7.07 0 0 1 -.23.89h.46a.48.48 0 0 1 .46.48v.82s0 .56 0 .8c0 .51-.4.53-.77.53-.55 0-.73-.08-.73-.7 0-.25 0-.53 0-.79zm1.08.14c0-.28 0-.57 0-.81s-.15-.16-.26-.16-.26 0-.26.17 0 .49 0 .76 0 .44 0 .62.08.17.26.17.25 0 .26-.18 0-.35 0-.56zm2.33-.65h-.6a3.38 3.38 0 0 1 -1 2.48l-.23.09a.29.29 0 0 1 -.29-.26l.1-.19a2.71 2.71 0 0 0 .92-2.15h-.47a.24.24 0 0 1 0-.48h.48c0-.39 0-.83 0-1.13h-.31a.23.23 0 0 1 -.23-.24.23.23 0 0 1 .23-.24h2.29a.23.23 0 0 1 .24.24.23.23 0 0 1 -.24.24h-.36v1.13h.57a.24.24 0 0 1 0 .48h-.57v2.42a.24.24 0 0 1 -.27.23.24.24 0 0 1 -.27-.23zm0-1.61h-.56v1.13h.57z"/><path d="m61.6 25.47a2.31 2.31 0 0 1 -1.94 1.75h-.08a.28.28 0 0 1 -.28-.29.25.25 0 0 1 .23-.25 1.75 1.75 0 0 0 1.47-1.2h-1a.23.23 0 0 1 -.24-.24.26.26 0 0 1 .24-.24h1.13c0-.09 0-.17 0-.26v-.19a.27.27 0 0 1 .29-.25.26.26 0 0 1 .28.28v.42h.46c.33 0 .57.18.57.5s-.07.91-.07.91c0 .17.15.18.38.18.4 0 .52-.08.52-.5a.25.25 0 0 1 .27-.26.3.3 0 0 1 .32.3c0 .91-.7.94-1.1.94-.56 0-.94-.07-.94-.54 0-.17.06-.7.07-.87 0-.13-.09-.19-.26-.19zm.81-1.47c0 .19.13.19.41.19s.45-.06.45-.19l.12-.17v-.15c0-.33 0-.41-.31-.41h-2.88c-.31 0-.32.1-.33.25v.25a.26.26 0 0 1 -.28.25c-.27 0-.27-.21-.27-.45s0-.76.61-.77h1.42v-.35a.29.29 0 0 1 .59 0v.35h1.31a.64.64 0 0 1 .66.58v.17c0 .28-.07.32-.17.36v.11c0 .61-.53.63-1 .63s-.9 0-.9-.58c0 0 0-.17 0-.3s0-.38.26-.38.26.07.26.19zm-2.66.78a.27.27 0 0 1 -.29-.26.25.25 0 0 1 .2-.23 2 2 0 0 0 1.16-.78l.2-.11a.26.26 0 0 1 .27.25l-.05.17a2.49 2.49 0 0 1 -1.49 1z"/><path d="m66.08 26.95a.31.31 0 0 1 -.25.14.26.26 0 0 1 -.27-.24l.06-.16a3.1 3.1 0 0 0 .51-1.92c0-.29 0-.58 0-.88a.48.48 0 0 1 .53-.49h.34c.78 0 .95 0 .95.85s-.11.87-1 .87h-.31a3.5 3.5 0 0 1 -.56 1.83zm.06-4a.25.25 0 1 1 0-.49h1.75a.25.25 0 1 1 0 .49zm.75 1.67c.38 0 .54 0 .56-.18s0-.2 0-.31c0-.32 0-.36-.4-.36s-.45 0-.45.2 0 .43 0 .64zm2.42-.29h-.55a3.21 3.21 0 0 1 -1 2.63l-.2.07a.29.29 0 0 1 -.28-.28l.11-.2a2.64 2.64 0 0 0 .9-2.36c0-.26 0-.51 0-.75v-.07c0-.39.14-.6.51-.65a4.9 4.9 0 0 0 1.2-.31h.12a.28.28 0 0 1 .27.29.26.26 0 0 1 -.19.26 8.4 8.4 0 0 1 -1.26.29c-.17 0-.21.11-.21.26v.37h1.72a.24.24 0 0 1 .25.24.24.24 0 0 1 -.25.24h-.64v2.56a.27.27 0 0 1 -.54 0z"/></g></svg>