<svg viewBox="0 0 83.17 17.63" xmlns="http://www.w3.org/2000/svg"><g fill="#231815"><path d="m.1 9.21c0-2 1.61-3.52 4.57-3.52a6.79 6.79 0 0 1 3.49.84c.59.33.92.71.92 1.22s-.51 1.59-1.35 1.59a2.91 2.91 0 0 1 -1.07-.34 5.69 5.69 0 0 0 -2.17-.56c-.69 0-1.12.25-1.12.71 0 1.58 5.92.92 5.92 4.92 0 2.17-1.68 3.55-4.67 3.55a6.67 6.67 0 0 1 -3.67-.94 1.54 1.54 0 0 1 -.95-1.32c0-.59.46-1.58 1.38-1.58a2.24 2.24 0 0 1 1 .36 4.89 4.89 0 0 0 2.35.74c.77 0 1.28-.25 1.28-.77-.01-1.66-5.91-.97-5.91-4.9z"/><path d="m15.33 8.5a5.1 5.1 0 0 0 -2.11.5 2.77 2.77 0 0 1 -1.07.36c-.79 0-1.3-.94-1.3-1.61 0-.48.28-.84.92-1.2a8.13 8.13 0 0 1 3.88-.87 5 5 0 0 1 4 1.35 4.39 4.39 0 0 1 .79 2.86v6.25c0 1-.46 1.4-1.66 1.4-1 0-1.43-.31-1.43-1v-.2a4 4 0 0 1 -3.16 1.25c-2.35 0-3.78-1.28-3.78-3.32 0-2.3 1.84-3.6 6.74-4v-.27c-.06-.94-.49-1.5-1.82-1.5zm-1.51 5.43c0 .59.38 1 1.35 1a3 3 0 0 0 1.91-.71v-2.02c-2.18.28-3.25.74-3.25 1.73z"/><path d="m33 16.69c0 .56-.54.87-1.74.87a2.37 2.37 0 0 1 -2.35-1l-3.47-4.56v4.18c0 .92-.56 1.38-1.71 1.38s-1.73-.47-1.73-1.38v-14.7c0-.92.58-1.38 1.73-1.38s1.71.46 1.71 1.38v9.36l3.37-4a2.41 2.41 0 0 1 2.27-1.15c1.2 0 1.79.36 1.79.89a1.87 1.87 0 0 1 -.66 1.15l-3.41 3.6 3.45 4a2.25 2.25 0 0 1 .75 1.36z"/><path d="m43.5 15.51c0 .61-.41.92-.89 1.22a6.82 6.82 0 0 1 -3.65.89c-3.8 0-5.95-2.19-5.95-5.92s2.12-6.07 5.54-6.07a4.91 4.91 0 0 1 5.25 5c0 1.79-.87 2-1.94 2h-5.56a2.48 2.48 0 0 0 2.7 2.22 4.53 4.53 0 0 0 2.09-.54 2.28 2.28 0 0 1 1-.33 1.53 1.53 0 0 1 1.41 1.53zm-7.22-5.08h4.29a2 2 0 0 0 -2.07-2.19c-1.28 0-2.02.76-2.22 2.19z"/><path d="m52.43 16.33a.87.87 0 0 1 -.51.77 4.66 4.66 0 0 1 -2.27.54 3.08 3.08 0 0 1 -3-1.53 6.25 6.25 0 0 1 -.48-3v-5h-1.4a.79.79 0 0 1 -.89-.89.8.8 0 0 1 .89-.92h1.43v-2.83c0-.59.33-.89 1-.89s1.1.31 1.1.89v2.78h2.91a.79.79 0 0 1 .89.89.8.8 0 0 1 -.89.92h-2.87v5a4.73 4.73 0 0 0 .28 2 1.38 1.38 0 0 0 1.33.69 2.77 2.77 0 0 0 1.05-.19 2 2 0 0 1 .59-.2c.61 0 .84.64.84.97z"/><path d="m57.45 7.76a4.44 4.44 0 0 0 -2.3.64c-.41.23-.61.41-.89.41a1 1 0 0 1 -.87-1c0-.31.23-.61.77-.94a6.71 6.71 0 0 1 3.49-.89 4.13 4.13 0 0 1 3.52 1.38 4.43 4.43 0 0 1 .69 2.78v6.53c0 .61-.25.92-1 .92s-.94-.2-.94-.69v-.61a4.5 4.5 0 0 1 -3.42 1.35c-2.29 0-3.62-1.28-3.62-3.19 0-2.32 2-3.55 6.91-3.93v-.33c-.02-1.62-.65-2.43-2.34-2.43zm-2.32 6.51c0 .89.61 1.58 2 1.58a4 4 0 0 0 2.6-1v-2.94c-3.15.36-4.6.95-4.6 2.35z"/><path d="m72.84 17c0 .36-.25.56-1.15.56a1.63 1.63 0 0 1 -1.53-.71l-4.64-5v4.85c0 .59-.33.89-1 .89s-1.1-.31-1.1-.89v-15.81c0-.59.33-.89 1-.89s1.1.31 1.1.89v10.28l4.38-4.38a1.81 1.81 0 0 1 1.58-.79c.79 0 1.12.2 1.12.54s-.18.51-.77 1l-4.08 3.83 4.53 4.63c.38.48.56.76.56 1z"/><path d="m81.1 16.66v-.84a4 4 0 0 1 -3.57 1.79 3.59 3.59 0 0 1 -3.16-1.48 5.3 5.3 0 0 1 -.71-3v-6.22c0-.59.33-.89 1-.89s1.1.31 1.1.89v5.87a3.61 3.61 0 0 0 .48 2.07 2.29 2.29 0 0 0 2 .89 3.13 3.13 0 0 0 2.76-1.48v-7.35c0-.59.33-.89 1-.89s1.1.31 1.1.89v9.75c0 .59-.36.89-1 .89s-1-.35-1-.89z"/></g></svg>